G75*
G70*
%OFA0B0*%
%FSLAX24Y24*%
%IPPOS*%
%LPD*%
%AMOC8*
5,1,8,0,0,1.08239X$1,22.5*
%
%ADD10C,0.0531*%
%ADD11C,0.0650*%
%ADD12C,0.1004*%
%ADD13C,0.0337*%
%ADD14C,0.0080*%
%ADD15C,0.0100*%
%ADD16C,0.0380*%
D10*
X006651Y004275D02*
X007182Y004275D01*
X007182Y008881D02*
X006651Y008881D01*
D11*
X006916Y007484D03*
X006916Y005673D03*
D12*
X024017Y005254D02*
X025021Y005254D01*
X025021Y006813D02*
X024017Y006813D01*
X024017Y008372D02*
X025021Y008372D01*
X025021Y003695D02*
X024017Y003695D01*
D13*
X020571Y005700D03*
X019831Y006040D03*
X020561Y006430D03*
X017121Y005970D03*
X015751Y007430D03*
X015751Y008130D03*
X014531Y008190D03*
X013931Y008180D03*
X011821Y008290D03*
X011821Y009070D03*
X012681Y010900D03*
X017541Y011020D03*
X019671Y009750D03*
X018271Y008690D03*
X012361Y006500D03*
X016311Y002670D03*
D14*
X017131Y003790D01*
X017121Y005970D01*
X013931Y005970D01*
X013641Y006510D01*
X012361Y006500D01*
X013931Y008180D02*
X013931Y008760D01*
X012681Y009380D01*
X012681Y010900D01*
X011821Y009070D02*
X011821Y008290D01*
X015751Y008130D02*
X015751Y007430D01*
X017121Y008260D02*
X017521Y008750D01*
X017541Y011020D01*
X018271Y008690D02*
X018271Y007570D01*
X019504Y006858D01*
X020091Y006520D01*
X020241Y006430D01*
X020561Y006430D01*
X020152Y006049D01*
X020571Y005700D01*
X020121Y006010D02*
X019861Y006010D01*
X019831Y006040D01*
X020121Y006020D02*
X020121Y006010D01*
X020121Y006020D02*
X020152Y006049D01*
X017121Y005970D02*
X017121Y008260D01*
D15*
X005971Y013329D02*
X005971Y000390D01*
X026641Y000390D01*
X026641Y013329D01*
X005971Y013329D01*
X005971Y013251D02*
X026641Y013251D01*
X026641Y013152D02*
X005971Y013152D01*
X005971Y013054D02*
X026641Y013054D01*
X026641Y012955D02*
X005971Y012955D01*
X005971Y012857D02*
X026641Y012857D01*
X026641Y012758D02*
X005971Y012758D01*
X005971Y012660D02*
X026641Y012660D01*
X026641Y012561D02*
X005971Y012561D01*
X005971Y012463D02*
X026641Y012463D01*
X026641Y012364D02*
X005971Y012364D01*
X005971Y012266D02*
X026641Y012266D01*
X026641Y012167D02*
X011558Y012167D01*
X011502Y012190D02*
X011359Y012190D01*
X011227Y012135D01*
X011125Y012034D01*
X011071Y011902D01*
X011071Y011758D01*
X011125Y011626D01*
X011227Y011525D01*
X011359Y011470D01*
X011480Y011470D01*
X012220Y010730D01*
X012385Y010730D01*
X012394Y010708D01*
X012471Y010631D01*
X012471Y009429D01*
X012454Y009395D01*
X012471Y009346D01*
X012471Y009293D01*
X012497Y009266D01*
X012509Y009231D01*
X012557Y009207D01*
X012594Y009170D01*
X012631Y009170D01*
X013721Y008630D01*
X013721Y008449D01*
X013644Y008372D01*
X013592Y008247D01*
X013592Y008113D01*
X013644Y007988D01*
X013739Y007893D01*
X013863Y007842D01*
X013998Y007842D01*
X014122Y007893D01*
X014218Y007988D01*
X014233Y008025D01*
X014244Y007998D01*
X014326Y007916D01*
X013960Y007550D01*
X013839Y007550D01*
X013707Y007495D01*
X013605Y007394D01*
X013551Y007262D01*
X013551Y007118D01*
X013605Y006986D01*
X013707Y006885D01*
X013839Y006830D01*
X013982Y006830D01*
X014115Y006885D01*
X014216Y006986D01*
X014271Y007118D01*
X014271Y007239D01*
X015282Y008250D01*
X015762Y008250D01*
X015891Y008379D01*
X015891Y008570D01*
X016582Y008570D01*
X016667Y008485D01*
X016799Y008430D01*
X016942Y008430D01*
X017012Y008459D01*
X016965Y008401D01*
X016911Y008347D01*
X016911Y008335D01*
X016903Y008325D01*
X016911Y008249D01*
X016911Y006239D01*
X016852Y006180D01*
X014056Y006180D01*
X013850Y006564D01*
X013850Y006599D01*
X013811Y006637D01*
X013785Y006686D01*
X013751Y006696D01*
X013726Y006721D01*
X013671Y006720D01*
X013618Y006736D01*
X013587Y006720D01*
X012627Y006712D01*
X012552Y006787D01*
X012428Y006838D01*
X012293Y006838D01*
X012169Y006787D01*
X012074Y006692D01*
X012022Y006567D01*
X012022Y006433D01*
X012074Y006308D01*
X012169Y006213D01*
X012293Y006162D01*
X012428Y006162D01*
X012552Y006213D01*
X012631Y006292D01*
X013516Y006299D01*
X013721Y005917D01*
X013721Y005883D01*
X013760Y005843D01*
X013787Y005794D01*
X013820Y005784D01*
X013844Y005760D01*
X013900Y005760D01*
X013953Y005744D01*
X013983Y005760D01*
X016852Y005760D01*
X016912Y005700D01*
X016920Y003858D01*
X016298Y003008D01*
X016243Y003008D01*
X016119Y002957D01*
X016024Y002862D01*
X015972Y002737D01*
X015972Y002603D01*
X016002Y002530D01*
X014402Y002530D01*
X014211Y002721D01*
X014082Y002850D01*
X011080Y002850D01*
X010995Y002935D01*
X010862Y002990D01*
X010719Y002990D01*
X010587Y002935D01*
X010485Y002834D01*
X010431Y002702D01*
X010431Y002558D01*
X010485Y002426D01*
X010587Y002325D01*
X010719Y002270D01*
X010862Y002270D01*
X010995Y002325D01*
X011080Y002410D01*
X013596Y002410D01*
X013551Y002302D01*
X013551Y002158D01*
X013605Y002026D01*
X013611Y002021D01*
X013611Y001639D01*
X013525Y001554D01*
X013471Y001422D01*
X013471Y001278D01*
X013525Y001146D01*
X013627Y001045D01*
X013759Y000990D01*
X013902Y000990D01*
X014035Y001045D01*
X014136Y001146D01*
X014191Y001278D01*
X014191Y001422D01*
X014136Y001554D01*
X014051Y001639D01*
X014051Y001898D01*
X014115Y001925D01*
X014216Y002026D01*
X014242Y002090D01*
X019740Y002090D01*
X020191Y001639D01*
X020191Y001518D01*
X020245Y001386D01*
X020347Y001285D01*
X020479Y001230D01*
X020622Y001230D01*
X020755Y001285D01*
X020856Y001386D01*
X020911Y001518D01*
X020911Y001662D01*
X020856Y001794D01*
X020755Y001895D01*
X020622Y001950D01*
X020502Y001950D01*
X020051Y002401D01*
X019922Y002530D01*
X016619Y002530D01*
X016649Y002603D01*
X016649Y002737D01*
X016639Y002763D01*
X017291Y003653D01*
X017341Y003704D01*
X017341Y003722D01*
X017351Y003736D01*
X017341Y003807D01*
X017332Y005703D01*
X017408Y005778D01*
X017459Y005903D01*
X017459Y006037D01*
X017408Y006162D01*
X017331Y006239D01*
X017331Y008185D01*
X017676Y008608D01*
X017730Y008661D01*
X017730Y008674D01*
X017738Y008685D01*
X017731Y008760D01*
X017748Y010749D01*
X017828Y010828D01*
X017879Y010953D01*
X017879Y011087D01*
X017861Y011130D01*
X018011Y011130D01*
X018011Y008909D01*
X017984Y008882D01*
X017932Y008757D01*
X017932Y008623D01*
X017984Y008498D01*
X018061Y008421D01*
X018061Y007626D01*
X018045Y007600D01*
X018061Y007542D01*
X018061Y007483D01*
X018082Y007461D01*
X018090Y007432D01*
X018142Y007402D01*
X018184Y007360D01*
X018214Y007360D01*
X019311Y006727D01*
X019315Y006713D01*
X019412Y006658D01*
X019420Y006650D01*
X019425Y006650D01*
X019473Y006622D01*
X019487Y006626D01*
X019961Y006352D01*
X019898Y006378D01*
X019763Y006378D01*
X019639Y006327D01*
X019544Y006232D01*
X019492Y006107D01*
X019492Y005973D01*
X019544Y005848D01*
X019611Y005781D01*
X019611Y004119D01*
X019525Y004034D01*
X019471Y003902D01*
X019471Y003758D01*
X019525Y003626D01*
X019627Y003525D01*
X019759Y003470D01*
X019902Y003470D01*
X020035Y003525D01*
X020136Y003626D01*
X020191Y003758D01*
X020191Y003902D01*
X020136Y004034D01*
X020051Y004119D01*
X020051Y005781D01*
X020069Y005800D01*
X020123Y005800D01*
X020232Y005709D01*
X020232Y005633D01*
X020284Y005508D01*
X020379Y005413D01*
X020503Y005362D01*
X020638Y005362D01*
X020762Y005413D01*
X020858Y005508D01*
X020909Y005633D01*
X020909Y005767D01*
X020858Y005892D01*
X020762Y005987D01*
X020638Y006038D01*
X020503Y006038D01*
X020496Y006036D01*
X020470Y006058D01*
X020506Y006092D01*
X020628Y006092D01*
X020752Y006143D01*
X020848Y006238D01*
X020899Y006363D01*
X020899Y006497D01*
X020848Y006622D01*
X020752Y006717D01*
X020628Y006768D01*
X020493Y006768D01*
X020369Y006717D01*
X020295Y006643D01*
X020271Y006656D01*
X020271Y006658D01*
X020197Y006701D01*
X020124Y006745D01*
X020122Y006744D01*
X019852Y006900D01*
X019862Y006910D01*
X019982Y006910D01*
X020115Y006965D01*
X020216Y007066D01*
X020271Y007198D01*
X020271Y007342D01*
X020216Y007474D01*
X020115Y007575D01*
X019982Y007630D01*
X019839Y007630D01*
X019707Y007575D01*
X019605Y007474D01*
X019551Y007342D01*
X019551Y007221D01*
X019457Y007128D01*
X018481Y007691D01*
X018481Y008421D01*
X018558Y008498D01*
X018609Y008623D01*
X018609Y008757D01*
X018558Y008882D01*
X018462Y008977D01*
X018451Y008982D01*
X018451Y011441D01*
X018322Y011570D01*
X016940Y011570D01*
X015720Y010350D01*
X015599Y010350D01*
X015467Y010295D01*
X015365Y010194D01*
X015311Y010062D01*
X015311Y009918D01*
X015365Y009786D01*
X015451Y009701D01*
X015451Y008690D01*
X014700Y008690D01*
X014538Y008528D01*
X014463Y008528D01*
X014339Y008477D01*
X014244Y008382D01*
X014229Y008345D01*
X014218Y008372D01*
X014141Y008449D01*
X014141Y008711D01*
X014157Y008745D01*
X014141Y008794D01*
X014141Y008847D01*
X014114Y008874D01*
X014102Y008909D01*
X014055Y008933D01*
X014018Y008970D01*
X013980Y008970D01*
X012891Y009510D01*
X012891Y010631D01*
X012968Y010708D01*
X013019Y010833D01*
X013019Y010967D01*
X012968Y011092D01*
X012872Y011187D01*
X012748Y011238D01*
X012613Y011238D01*
X012489Y011187D01*
X012472Y011170D01*
X012402Y011170D01*
X011791Y011781D01*
X011791Y011902D01*
X011736Y012034D01*
X011635Y012135D01*
X011502Y012190D01*
X011304Y012167D02*
X005971Y012167D01*
X005971Y012069D02*
X011160Y012069D01*
X011099Y011970D02*
X005971Y011970D01*
X005971Y011872D02*
X011071Y011872D01*
X011071Y011773D02*
X005971Y011773D01*
X005971Y011675D02*
X011105Y011675D01*
X011176Y011576D02*
X005971Y011576D01*
X005971Y011478D02*
X011341Y011478D01*
X011571Y011379D02*
X005971Y011379D01*
X005971Y011281D02*
X011669Y011281D01*
X011768Y011182D02*
X005971Y011182D01*
X005971Y011084D02*
X011866Y011084D01*
X011965Y010985D02*
X005971Y010985D01*
X005971Y010887D02*
X012063Y010887D01*
X012162Y010788D02*
X005971Y010788D01*
X005971Y010690D02*
X012413Y010690D01*
X012471Y010591D02*
X005971Y010591D01*
X005971Y010493D02*
X012471Y010493D01*
X012471Y010394D02*
X005971Y010394D01*
X005971Y010296D02*
X012471Y010296D01*
X012471Y010197D02*
X005971Y010197D01*
X005971Y010099D02*
X012471Y010099D01*
X012471Y010000D02*
X005971Y010000D01*
X005971Y009902D02*
X012471Y009902D01*
X012471Y009803D02*
X005971Y009803D01*
X005971Y009705D02*
X012471Y009705D01*
X012471Y009606D02*
X005971Y009606D01*
X005971Y009508D02*
X012471Y009508D01*
X012461Y009409D02*
X005971Y009409D01*
X005971Y009311D02*
X006548Y009311D01*
X006564Y009317D02*
X006404Y009251D01*
X006281Y009128D01*
X006215Y008968D01*
X006215Y008795D01*
X006281Y008634D01*
X006404Y008512D01*
X006564Y008446D01*
X007269Y008446D01*
X007429Y008512D01*
X007551Y008634D01*
X007618Y008795D01*
X007618Y008968D01*
X007551Y009128D01*
X007429Y009251D01*
X007269Y009317D01*
X006564Y009317D01*
X006365Y009212D02*
X005971Y009212D01*
X005971Y009114D02*
X006275Y009114D01*
X006234Y009015D02*
X005971Y009015D01*
X005971Y008917D02*
X006215Y008917D01*
X006215Y008818D02*
X005971Y008818D01*
X005971Y008720D02*
X006246Y008720D01*
X006295Y008621D02*
X005971Y008621D01*
X005971Y008523D02*
X006393Y008523D01*
X005971Y008424D02*
X011510Y008424D01*
X011534Y008482D02*
X011482Y008357D01*
X011482Y008223D01*
X011534Y008098D01*
X011629Y008003D01*
X011753Y007952D01*
X011888Y007952D01*
X012012Y008003D01*
X012108Y008098D01*
X012159Y008223D01*
X012159Y008357D01*
X012108Y008482D01*
X012031Y008559D01*
X012031Y008801D01*
X012108Y008878D01*
X012159Y009003D01*
X012159Y009137D01*
X012108Y009262D01*
X012012Y009357D01*
X011888Y009408D01*
X011753Y009408D01*
X011629Y009357D01*
X011534Y009262D01*
X011482Y009137D01*
X011482Y009003D01*
X011534Y008878D01*
X011611Y008801D01*
X011611Y008559D01*
X011534Y008482D01*
X011575Y008523D02*
X007440Y008523D01*
X007538Y008621D02*
X011611Y008621D01*
X011611Y008720D02*
X007587Y008720D01*
X007618Y008818D02*
X011594Y008818D01*
X011518Y008917D02*
X007618Y008917D01*
X007598Y009015D02*
X011482Y009015D01*
X011482Y009114D02*
X007558Y009114D01*
X007468Y009212D02*
X011513Y009212D01*
X011583Y009311D02*
X007284Y009311D01*
X005971Y008326D02*
X011482Y008326D01*
X011482Y008227D02*
X005971Y008227D01*
X005971Y008129D02*
X011521Y008129D01*
X011602Y008030D02*
X005971Y008030D01*
X005971Y007932D02*
X006705Y007932D01*
X006636Y007903D02*
X006497Y007764D01*
X006422Y007582D01*
X006422Y007385D01*
X006497Y007203D01*
X006636Y007064D01*
X006818Y006989D01*
X007015Y006989D01*
X007197Y007064D01*
X007336Y007203D01*
X007411Y007385D01*
X007411Y007582D01*
X007336Y007764D01*
X007197Y007903D01*
X007015Y007978D01*
X006818Y007978D01*
X006636Y007903D01*
X006566Y007833D02*
X005971Y007833D01*
X005971Y007735D02*
X006485Y007735D01*
X006444Y007636D02*
X005971Y007636D01*
X005971Y007538D02*
X006422Y007538D01*
X006422Y007439D02*
X005971Y007439D01*
X005971Y007341D02*
X006440Y007341D01*
X006481Y007242D02*
X005971Y007242D01*
X005971Y007144D02*
X006557Y007144D01*
X006682Y007045D02*
X005971Y007045D01*
X005971Y006947D02*
X013645Y006947D01*
X013581Y007045D02*
X007150Y007045D01*
X007276Y007144D02*
X013551Y007144D01*
X013551Y007242D02*
X007352Y007242D01*
X007393Y007341D02*
X013583Y007341D01*
X013651Y007439D02*
X007411Y007439D01*
X007411Y007538D02*
X013809Y007538D01*
X014046Y007636D02*
X007389Y007636D01*
X007348Y007735D02*
X014144Y007735D01*
X014243Y007833D02*
X007267Y007833D01*
X007128Y007932D02*
X013701Y007932D01*
X013626Y008030D02*
X012039Y008030D01*
X012120Y008129D02*
X013592Y008129D01*
X013592Y008227D02*
X012159Y008227D01*
X012159Y008326D02*
X013625Y008326D01*
X013696Y008424D02*
X012131Y008424D01*
X012067Y008523D02*
X013721Y008523D01*
X013721Y008621D02*
X012031Y008621D01*
X012031Y008720D02*
X013540Y008720D01*
X013341Y008818D02*
X012047Y008818D01*
X012123Y008917D02*
X013142Y008917D01*
X012944Y009015D02*
X012159Y009015D01*
X012159Y009114D02*
X012745Y009114D01*
X012547Y009212D02*
X012128Y009212D01*
X012059Y009311D02*
X012471Y009311D01*
X012896Y009508D02*
X015451Y009508D01*
X015451Y009606D02*
X012891Y009606D01*
X012891Y009705D02*
X015447Y009705D01*
X015358Y009803D02*
X012891Y009803D01*
X012891Y009902D02*
X015318Y009902D01*
X015311Y010000D02*
X012891Y010000D01*
X012891Y010099D02*
X015326Y010099D01*
X015369Y010197D02*
X012891Y010197D01*
X012891Y010296D02*
X015468Y010296D01*
X015764Y010394D02*
X012891Y010394D01*
X012891Y010493D02*
X015862Y010493D01*
X015961Y010591D02*
X012891Y010591D01*
X012949Y010690D02*
X016059Y010690D01*
X016158Y010788D02*
X013001Y010788D01*
X013019Y010887D02*
X016256Y010887D01*
X016355Y010985D02*
X013012Y010985D01*
X012971Y011084D02*
X016453Y011084D01*
X016552Y011182D02*
X012877Y011182D01*
X012631Y010950D02*
X012681Y010900D01*
X012631Y010950D02*
X012311Y010950D01*
X011431Y011830D01*
X011762Y011970D02*
X026641Y011970D01*
X026641Y011872D02*
X011791Y011872D01*
X011799Y011773D02*
X026641Y011773D01*
X026641Y011675D02*
X011897Y011675D01*
X011996Y011576D02*
X026641Y011576D01*
X026641Y011478D02*
X018414Y011478D01*
X018451Y011379D02*
X026641Y011379D01*
X026641Y011281D02*
X018451Y011281D01*
X018451Y011182D02*
X026641Y011182D01*
X026641Y011084D02*
X018451Y011084D01*
X018451Y010985D02*
X026641Y010985D01*
X026641Y010887D02*
X018451Y010887D01*
X018451Y010788D02*
X026641Y010788D01*
X026641Y010690D02*
X018451Y010690D01*
X018451Y010591D02*
X026641Y010591D01*
X026641Y010493D02*
X018451Y010493D01*
X018451Y010394D02*
X026641Y010394D01*
X026641Y010296D02*
X018451Y010296D01*
X018451Y010197D02*
X026641Y010197D01*
X026641Y010099D02*
X018451Y010099D01*
X018451Y010000D02*
X026641Y010000D01*
X026641Y009902D02*
X018451Y009902D01*
X018451Y009803D02*
X026641Y009803D01*
X026641Y009705D02*
X018451Y009705D01*
X018451Y009606D02*
X026641Y009606D01*
X026641Y009508D02*
X018451Y009508D01*
X018451Y009409D02*
X026641Y009409D01*
X026641Y009311D02*
X018451Y009311D01*
X018451Y009212D02*
X026641Y009212D01*
X026641Y009114D02*
X018451Y009114D01*
X018451Y009015D02*
X023814Y009015D01*
X023883Y009044D02*
X023636Y008941D01*
X023447Y008752D01*
X023345Y008505D01*
X023345Y008238D01*
X023447Y007991D01*
X023636Y007802D01*
X023883Y007700D01*
X025154Y007700D01*
X025401Y007802D01*
X025590Y007991D01*
X025693Y008238D01*
X025693Y008505D01*
X025590Y008752D01*
X025401Y008941D01*
X025154Y009044D01*
X023883Y009044D01*
X023611Y008917D02*
X018523Y008917D01*
X018584Y008818D02*
X023513Y008818D01*
X023433Y008720D02*
X018609Y008720D01*
X018608Y008621D02*
X023393Y008621D01*
X023352Y008523D02*
X018568Y008523D01*
X018483Y008424D02*
X023345Y008424D01*
X023345Y008326D02*
X018481Y008326D01*
X018481Y008227D02*
X023349Y008227D01*
X023390Y008129D02*
X018481Y008129D01*
X018481Y008030D02*
X023431Y008030D01*
X023507Y007932D02*
X018481Y007932D01*
X018481Y007833D02*
X023605Y007833D01*
X023799Y007735D02*
X018481Y007735D01*
X018576Y007636D02*
X026641Y007636D01*
X026641Y007538D02*
X020152Y007538D01*
X020230Y007439D02*
X023773Y007439D01*
X023883Y007485D02*
X023636Y007382D01*
X023447Y007193D01*
X023345Y006946D01*
X023345Y006679D01*
X023447Y006432D01*
X023636Y006243D01*
X023883Y006141D01*
X025154Y006141D01*
X025401Y006243D01*
X025590Y006432D01*
X025693Y006679D01*
X025693Y006946D01*
X025590Y007193D01*
X025401Y007382D01*
X025154Y007485D01*
X023883Y007485D01*
X023594Y007341D02*
X020271Y007341D01*
X020271Y007242D02*
X023496Y007242D01*
X023426Y007144D02*
X020248Y007144D01*
X020195Y007045D02*
X023386Y007045D01*
X023345Y006947D02*
X020070Y006947D01*
X019942Y006848D02*
X023345Y006848D01*
X023345Y006750D02*
X020674Y006750D01*
X020818Y006651D02*
X023356Y006651D01*
X023397Y006553D02*
X020876Y006553D01*
X020899Y006454D02*
X023438Y006454D01*
X023524Y006356D02*
X020896Y006356D01*
X020855Y006257D02*
X023622Y006257D01*
X023840Y006159D02*
X020768Y006159D01*
X020472Y006060D02*
X026641Y006060D01*
X026641Y005962D02*
X020788Y005962D01*
X020869Y005863D02*
X023732Y005863D01*
X023636Y005823D02*
X023447Y005634D01*
X023345Y005387D01*
X023345Y005120D01*
X023447Y004873D01*
X023636Y004684D01*
X023883Y004582D01*
X025154Y004582D01*
X025401Y004684D01*
X025590Y004873D01*
X025693Y005120D01*
X025693Y005387D01*
X025590Y005634D01*
X025401Y005823D01*
X025154Y005926D01*
X023883Y005926D01*
X023636Y005823D01*
X023577Y005765D02*
X020909Y005765D01*
X020909Y005666D02*
X023479Y005666D01*
X023419Y005568D02*
X020882Y005568D01*
X020818Y005469D02*
X023379Y005469D01*
X023345Y005371D02*
X020660Y005371D01*
X020482Y005371D02*
X020051Y005371D01*
X020051Y005469D02*
X020323Y005469D01*
X020259Y005568D02*
X020051Y005568D01*
X020051Y005666D02*
X020232Y005666D01*
X020166Y005765D02*
X020051Y005765D01*
X019831Y006040D02*
X019831Y003830D01*
X020165Y003696D02*
X023345Y003696D01*
X023345Y003598D02*
X020107Y003598D01*
X019972Y003499D02*
X023370Y003499D01*
X023345Y003561D02*
X023447Y003314D01*
X023636Y003125D01*
X023883Y003023D01*
X025154Y003023D01*
X025401Y003125D01*
X025590Y003314D01*
X025693Y003561D01*
X025693Y003828D01*
X025590Y004075D01*
X025401Y004264D01*
X025154Y004367D01*
X023883Y004367D01*
X023636Y004264D01*
X023447Y004075D01*
X023345Y003828D01*
X023345Y003561D01*
X023345Y003795D02*
X020191Y003795D01*
X020191Y003893D02*
X023372Y003893D01*
X023412Y003992D02*
X020153Y003992D01*
X020080Y004090D02*
X023462Y004090D01*
X023560Y004189D02*
X020051Y004189D01*
X020051Y004287D02*
X023691Y004287D01*
X023881Y004583D02*
X020051Y004583D01*
X020051Y004681D02*
X023643Y004681D01*
X023541Y004780D02*
X020051Y004780D01*
X020051Y004878D02*
X023445Y004878D01*
X023404Y004977D02*
X020051Y004977D01*
X020051Y005075D02*
X023363Y005075D01*
X023345Y005174D02*
X020051Y005174D01*
X020051Y005272D02*
X023345Y005272D01*
X025156Y004583D02*
X026641Y004583D01*
X026641Y004681D02*
X025394Y004681D01*
X025497Y004780D02*
X026641Y004780D01*
X026641Y004878D02*
X025592Y004878D01*
X025633Y004977D02*
X026641Y004977D01*
X026641Y005075D02*
X025674Y005075D01*
X025693Y005174D02*
X026641Y005174D01*
X026641Y005272D02*
X025693Y005272D01*
X025693Y005371D02*
X026641Y005371D01*
X026641Y005469D02*
X025659Y005469D01*
X025618Y005568D02*
X026641Y005568D01*
X026641Y005666D02*
X025559Y005666D01*
X025460Y005765D02*
X026641Y005765D01*
X026641Y005863D02*
X025306Y005863D01*
X025197Y006159D02*
X026641Y006159D01*
X026641Y006257D02*
X025415Y006257D01*
X025514Y006356D02*
X026641Y006356D01*
X026641Y006454D02*
X025599Y006454D01*
X025640Y006553D02*
X026641Y006553D01*
X026641Y006651D02*
X025681Y006651D01*
X025693Y006750D02*
X026641Y006750D01*
X026641Y006848D02*
X025693Y006848D01*
X025693Y006947D02*
X026641Y006947D01*
X026641Y007045D02*
X025652Y007045D01*
X025611Y007144D02*
X026641Y007144D01*
X026641Y007242D02*
X025542Y007242D01*
X025443Y007341D02*
X026641Y007341D01*
X026641Y007439D02*
X025265Y007439D01*
X025238Y007735D02*
X026641Y007735D01*
X026641Y007833D02*
X025432Y007833D01*
X025531Y007932D02*
X026641Y007932D01*
X026641Y008030D02*
X025606Y008030D01*
X025647Y008129D02*
X026641Y008129D01*
X026641Y008227D02*
X025688Y008227D01*
X025693Y008326D02*
X026641Y008326D01*
X026641Y008424D02*
X025693Y008424D01*
X025686Y008523D02*
X026641Y008523D01*
X026641Y008621D02*
X025645Y008621D01*
X025604Y008720D02*
X026641Y008720D01*
X026641Y008818D02*
X025525Y008818D01*
X025426Y008917D02*
X026641Y008917D01*
X026641Y009015D02*
X025224Y009015D01*
X020448Y006750D02*
X020113Y006750D01*
X020280Y006651D02*
X020303Y006651D01*
X020088Y006277D02*
X020049Y006300D01*
X020080Y006269D01*
X020088Y006277D01*
X019956Y006356D02*
X019953Y006356D01*
X019785Y006454D02*
X017331Y006454D01*
X017331Y006356D02*
X019708Y006356D01*
X019569Y006257D02*
X017331Y006257D01*
X017409Y006159D02*
X019513Y006159D01*
X019492Y006060D02*
X017450Y006060D01*
X017459Y005962D02*
X019497Y005962D01*
X019538Y005863D02*
X017443Y005863D01*
X017394Y005765D02*
X019611Y005765D01*
X019611Y005666D02*
X017332Y005666D01*
X017333Y005568D02*
X019611Y005568D01*
X019611Y005469D02*
X017333Y005469D01*
X017333Y005371D02*
X019611Y005371D01*
X019611Y005272D02*
X017334Y005272D01*
X017334Y005174D02*
X019611Y005174D01*
X019611Y005075D02*
X017335Y005075D01*
X017335Y004977D02*
X019611Y004977D01*
X019611Y004878D02*
X017336Y004878D01*
X017336Y004780D02*
X019611Y004780D01*
X019611Y004681D02*
X017337Y004681D01*
X017337Y004583D02*
X019611Y004583D01*
X019611Y004484D02*
X017337Y004484D01*
X017338Y004386D02*
X019611Y004386D01*
X019611Y004287D02*
X017338Y004287D01*
X017339Y004189D02*
X019611Y004189D01*
X019582Y004090D02*
X017339Y004090D01*
X017340Y003992D02*
X019508Y003992D01*
X019471Y003893D02*
X017340Y003893D01*
X017342Y003795D02*
X019471Y003795D01*
X019497Y003696D02*
X017333Y003696D01*
X017250Y003598D02*
X019554Y003598D01*
X019689Y003499D02*
X017178Y003499D01*
X017106Y003401D02*
X023411Y003401D01*
X023459Y003302D02*
X017034Y003302D01*
X016962Y003204D02*
X023558Y003204D01*
X023684Y003105D02*
X016889Y003105D01*
X016817Y003007D02*
X026641Y003007D01*
X026641Y003105D02*
X025353Y003105D01*
X025480Y003204D02*
X026641Y003204D01*
X026641Y003302D02*
X025578Y003302D01*
X025626Y003401D02*
X026641Y003401D01*
X026641Y003499D02*
X025667Y003499D01*
X025693Y003598D02*
X026641Y003598D01*
X026641Y003696D02*
X025693Y003696D01*
X025693Y003795D02*
X026641Y003795D01*
X026641Y003893D02*
X025666Y003893D01*
X025625Y003992D02*
X026641Y003992D01*
X026641Y004090D02*
X025576Y004090D01*
X025477Y004189D02*
X026641Y004189D01*
X026641Y004287D02*
X025347Y004287D01*
X026641Y004386D02*
X020051Y004386D01*
X020051Y004484D02*
X026641Y004484D01*
X026641Y002908D02*
X016745Y002908D01*
X016673Y002810D02*
X026641Y002810D01*
X026641Y002711D02*
X016649Y002711D01*
X016649Y002613D02*
X026641Y002613D01*
X026641Y002514D02*
X019938Y002514D01*
X020036Y002416D02*
X026641Y002416D01*
X026641Y002317D02*
X020135Y002317D01*
X020233Y002219D02*
X026641Y002219D01*
X026641Y002120D02*
X020332Y002120D01*
X020430Y002022D02*
X026641Y002022D01*
X026641Y001923D02*
X020687Y001923D01*
X020825Y001825D02*
X026641Y001825D01*
X026641Y001726D02*
X020884Y001726D01*
X020911Y001628D02*
X026641Y001628D01*
X026641Y001529D02*
X020911Y001529D01*
X020874Y001431D02*
X026641Y001431D01*
X026641Y001332D02*
X020802Y001332D01*
X020631Y001234D02*
X026641Y001234D01*
X026641Y001135D02*
X014125Y001135D01*
X014172Y001234D02*
X020471Y001234D01*
X020300Y001332D02*
X014191Y001332D01*
X014187Y001431D02*
X020227Y001431D01*
X020191Y001529D02*
X014146Y001529D01*
X014062Y001628D02*
X020191Y001628D01*
X020104Y001726D02*
X014051Y001726D01*
X014051Y001825D02*
X020005Y001825D01*
X019907Y001923D02*
X014110Y001923D01*
X014211Y002022D02*
X019808Y002022D01*
X019831Y002310D02*
X014311Y002310D01*
X013991Y002630D01*
X010791Y002630D01*
X010431Y002613D02*
X005971Y002613D01*
X005971Y002711D02*
X010435Y002711D01*
X010475Y002810D02*
X005971Y002810D01*
X005971Y002908D02*
X010560Y002908D01*
X011022Y002908D02*
X016070Y002908D01*
X016002Y002810D02*
X014122Y002810D01*
X014221Y002711D02*
X015972Y002711D01*
X015972Y002613D02*
X014319Y002613D01*
X013911Y002230D02*
X013831Y002230D01*
X013831Y001350D01*
X013537Y001135D02*
X005971Y001135D01*
X005971Y001037D02*
X013647Y001037D01*
X014015Y001037D02*
X026641Y001037D01*
X026641Y000938D02*
X005971Y000938D01*
X005971Y000840D02*
X026641Y000840D01*
X026641Y000741D02*
X005971Y000741D01*
X005971Y000643D02*
X026641Y000643D01*
X026641Y000544D02*
X005971Y000544D01*
X005971Y000446D02*
X026641Y000446D01*
X020551Y001590D02*
X019831Y002310D01*
X016874Y003795D02*
X005971Y003795D01*
X005971Y003893D02*
X006434Y003893D01*
X006404Y003906D02*
X006564Y003839D01*
X007269Y003839D01*
X007429Y003906D01*
X007551Y004028D01*
X007618Y004188D01*
X007618Y004362D01*
X007551Y004522D01*
X007429Y004644D01*
X007269Y004711D01*
X006564Y004711D01*
X006404Y004644D01*
X006281Y004522D01*
X006215Y004362D01*
X006215Y004188D01*
X006281Y004028D01*
X006404Y003906D01*
X006318Y003992D02*
X005971Y003992D01*
X005971Y004090D02*
X006256Y004090D01*
X006215Y004189D02*
X005971Y004189D01*
X005971Y004287D02*
X006215Y004287D01*
X006225Y004386D02*
X005971Y004386D01*
X005971Y004484D02*
X006266Y004484D01*
X006342Y004583D02*
X005971Y004583D01*
X005971Y004681D02*
X006492Y004681D01*
X005971Y004780D02*
X016916Y004780D01*
X016916Y004878D02*
X005971Y004878D01*
X005971Y004977D02*
X016915Y004977D01*
X016915Y005075D02*
X005971Y005075D01*
X005971Y005174D02*
X016914Y005174D01*
X016914Y005272D02*
X007216Y005272D01*
X007197Y005253D02*
X007336Y005392D01*
X007411Y005574D01*
X007411Y005771D01*
X007336Y005953D01*
X007197Y006092D01*
X007015Y006167D01*
X006818Y006167D01*
X006636Y006092D01*
X006497Y005953D01*
X006422Y005771D01*
X006422Y005574D01*
X006497Y005392D01*
X006636Y005253D01*
X006818Y005178D01*
X007015Y005178D01*
X007197Y005253D01*
X007314Y005371D02*
X016913Y005371D01*
X016913Y005469D02*
X007368Y005469D01*
X007408Y005568D02*
X016913Y005568D01*
X016912Y005666D02*
X007411Y005666D01*
X007411Y005765D02*
X013839Y005765D01*
X013741Y005863D02*
X007373Y005863D01*
X007327Y005962D02*
X013697Y005962D01*
X013644Y006060D02*
X007229Y006060D01*
X007036Y006159D02*
X013591Y006159D01*
X013538Y006257D02*
X012596Y006257D01*
X012125Y006257D02*
X005971Y006257D01*
X005971Y006159D02*
X006796Y006159D01*
X006604Y006060D02*
X005971Y006060D01*
X005971Y005962D02*
X006505Y005962D01*
X006460Y005863D02*
X005971Y005863D01*
X005971Y005765D02*
X006422Y005765D01*
X006422Y005666D02*
X005971Y005666D01*
X005971Y005568D02*
X006424Y005568D01*
X006465Y005469D02*
X005971Y005469D01*
X005971Y005371D02*
X006519Y005371D01*
X006617Y005272D02*
X005971Y005272D01*
X007340Y004681D02*
X016917Y004681D01*
X016917Y004583D02*
X007491Y004583D01*
X007567Y004484D02*
X016917Y004484D01*
X016918Y004386D02*
X007608Y004386D01*
X007618Y004287D02*
X016918Y004287D01*
X016919Y004189D02*
X007618Y004189D01*
X007577Y004090D02*
X016919Y004090D01*
X016920Y003992D02*
X007515Y003992D01*
X007399Y003893D02*
X016920Y003893D01*
X016802Y003696D02*
X005971Y003696D01*
X005971Y003598D02*
X016729Y003598D01*
X016657Y003499D02*
X005971Y003499D01*
X005971Y003401D02*
X016585Y003401D01*
X016513Y003302D02*
X005971Y003302D01*
X005971Y003204D02*
X016441Y003204D01*
X016369Y003105D02*
X005971Y003105D01*
X005971Y003007D02*
X016239Y003007D01*
X013557Y002317D02*
X010976Y002317D01*
X010606Y002317D02*
X005971Y002317D01*
X005971Y002219D02*
X013551Y002219D01*
X013567Y002120D02*
X005971Y002120D01*
X005971Y002022D02*
X013610Y002022D01*
X013611Y001923D02*
X005971Y001923D01*
X005971Y001825D02*
X013611Y001825D01*
X013611Y001726D02*
X005971Y001726D01*
X005971Y001628D02*
X013599Y001628D01*
X013515Y001529D02*
X005971Y001529D01*
X005971Y001431D02*
X013474Y001431D01*
X013471Y001332D02*
X005971Y001332D01*
X005971Y001234D02*
X013489Y001234D01*
X010496Y002416D02*
X005971Y002416D01*
X005971Y002514D02*
X010449Y002514D01*
X014015Y006257D02*
X016911Y006257D01*
X016911Y006356D02*
X013962Y006356D01*
X013909Y006454D02*
X016911Y006454D01*
X016911Y006553D02*
X013856Y006553D01*
X013803Y006651D02*
X016911Y006651D01*
X016911Y006750D02*
X012590Y006750D01*
X012132Y006750D02*
X005971Y006750D01*
X005971Y006848D02*
X013796Y006848D01*
X014026Y006848D02*
X016911Y006848D01*
X016911Y006947D02*
X014176Y006947D01*
X014240Y007045D02*
X016911Y007045D01*
X016911Y007144D02*
X014271Y007144D01*
X014274Y007242D02*
X016911Y007242D01*
X016911Y007341D02*
X014372Y007341D01*
X014471Y007439D02*
X016911Y007439D01*
X016911Y007538D02*
X014569Y007538D01*
X014668Y007636D02*
X016911Y007636D01*
X016911Y007735D02*
X014766Y007735D01*
X014865Y007833D02*
X016911Y007833D01*
X016911Y007932D02*
X014963Y007932D01*
X015062Y008030D02*
X016911Y008030D01*
X016911Y008129D02*
X015160Y008129D01*
X015259Y008227D02*
X016911Y008227D01*
X016903Y008326D02*
X015837Y008326D01*
X015891Y008424D02*
X016983Y008424D01*
X016629Y008523D02*
X015891Y008523D01*
X015671Y008470D02*
X015191Y008470D01*
X013911Y007190D01*
X014161Y007932D02*
X014311Y007932D01*
X014531Y008190D02*
X014551Y008230D01*
X014791Y008470D01*
X015191Y008470D01*
X015671Y008470D02*
X015671Y008790D01*
X016871Y008790D01*
X017208Y008917D02*
X017312Y008917D01*
X017311Y008826D02*
X017231Y008727D01*
X017231Y008862D01*
X017176Y008994D01*
X017075Y009095D01*
X016942Y009150D01*
X016799Y009150D01*
X016667Y009095D01*
X016582Y009010D01*
X015891Y009010D01*
X015891Y009701D01*
X015976Y009786D01*
X016031Y009918D01*
X016031Y010039D01*
X017122Y011130D01*
X017220Y011130D01*
X017202Y011087D01*
X017202Y010953D01*
X017254Y010828D01*
X017328Y010754D01*
X017311Y008826D01*
X017305Y008818D02*
X017231Y008818D01*
X017155Y009015D02*
X017313Y009015D01*
X017314Y009114D02*
X017030Y009114D01*
X017315Y009212D02*
X015891Y009212D01*
X015891Y009114D02*
X016711Y009114D01*
X016587Y009015D02*
X015891Y009015D01*
X015671Y008790D02*
X015671Y009990D01*
X017031Y011350D01*
X018231Y011350D01*
X018231Y008710D01*
X018271Y008690D01*
X017957Y008818D02*
X017731Y008818D01*
X017732Y008917D02*
X018011Y008917D01*
X018011Y009015D02*
X017733Y009015D01*
X017734Y009114D02*
X018011Y009114D01*
X018011Y009212D02*
X017735Y009212D01*
X017736Y009311D02*
X018011Y009311D01*
X018011Y009409D02*
X017736Y009409D01*
X017737Y009508D02*
X018011Y009508D01*
X018011Y009606D02*
X017738Y009606D01*
X017739Y009705D02*
X018011Y009705D01*
X018011Y009803D02*
X017740Y009803D01*
X017741Y009902D02*
X018011Y009902D01*
X018011Y010000D02*
X017742Y010000D01*
X017743Y010099D02*
X018011Y010099D01*
X018011Y010197D02*
X017743Y010197D01*
X017744Y010296D02*
X018011Y010296D01*
X018011Y010394D02*
X017745Y010394D01*
X017746Y010493D02*
X018011Y010493D01*
X018011Y010591D02*
X017747Y010591D01*
X017748Y010690D02*
X018011Y010690D01*
X018011Y010788D02*
X017787Y010788D01*
X017852Y010887D02*
X018011Y010887D01*
X018011Y010985D02*
X017879Y010985D01*
X017879Y011084D02*
X018011Y011084D01*
X017294Y010788D02*
X016780Y010788D01*
X016878Y010887D02*
X017230Y010887D01*
X017202Y010985D02*
X016977Y010985D01*
X017075Y011084D02*
X017202Y011084D01*
X016847Y011478D02*
X012094Y011478D01*
X012193Y011379D02*
X016749Y011379D01*
X016650Y011281D02*
X012291Y011281D01*
X012390Y011182D02*
X012484Y011182D01*
X011701Y012069D02*
X026641Y012069D01*
X018058Y008424D02*
X017526Y008424D01*
X017606Y008523D02*
X017974Y008523D01*
X017933Y008621D02*
X017689Y008621D01*
X017735Y008720D02*
X017932Y008720D01*
X018061Y008326D02*
X017445Y008326D01*
X017365Y008227D02*
X018061Y008227D01*
X018061Y008129D02*
X017331Y008129D01*
X017331Y008030D02*
X018061Y008030D01*
X018061Y007932D02*
X017331Y007932D01*
X017331Y007833D02*
X018061Y007833D01*
X018061Y007735D02*
X017331Y007735D01*
X017331Y007636D02*
X018061Y007636D01*
X018061Y007538D02*
X017331Y007538D01*
X017331Y007439D02*
X018088Y007439D01*
X018248Y007341D02*
X017331Y007341D01*
X017331Y007242D02*
X018419Y007242D01*
X018590Y007144D02*
X017331Y007144D01*
X017331Y007045D02*
X018760Y007045D01*
X018931Y006947D02*
X017331Y006947D01*
X017331Y006848D02*
X019102Y006848D01*
X019273Y006750D02*
X017331Y006750D01*
X017331Y006651D02*
X019419Y006651D01*
X019614Y006553D02*
X017331Y006553D01*
X019089Y007341D02*
X019551Y007341D01*
X019551Y007242D02*
X019259Y007242D01*
X019430Y007144D02*
X019473Y007144D01*
X019511Y006870D02*
X019911Y007270D01*
X019591Y007439D02*
X018918Y007439D01*
X018747Y007538D02*
X019669Y007538D01*
X019511Y006870D02*
X019504Y006858D01*
X015451Y008720D02*
X014145Y008720D01*
X014141Y008818D02*
X015451Y008818D01*
X015451Y008917D02*
X014088Y008917D01*
X013889Y009015D02*
X015451Y009015D01*
X015451Y009114D02*
X013691Y009114D01*
X013492Y009212D02*
X015451Y009212D01*
X015451Y009311D02*
X013293Y009311D01*
X013095Y009409D02*
X015451Y009409D01*
X015891Y009409D02*
X017316Y009409D01*
X017316Y009311D02*
X015891Y009311D01*
X015891Y009508D02*
X017317Y009508D01*
X017318Y009606D02*
X015891Y009606D01*
X015894Y009705D02*
X017319Y009705D01*
X017320Y009803D02*
X015983Y009803D01*
X016024Y009902D02*
X017321Y009902D01*
X017322Y010000D02*
X016031Y010000D01*
X016090Y010099D02*
X017323Y010099D01*
X017323Y010197D02*
X016189Y010197D01*
X016287Y010296D02*
X017324Y010296D01*
X017325Y010394D02*
X016386Y010394D01*
X016484Y010493D02*
X017326Y010493D01*
X017327Y010591D02*
X016583Y010591D01*
X016681Y010690D02*
X017328Y010690D01*
X014631Y008621D02*
X014141Y008621D01*
X014141Y008523D02*
X014449Y008523D01*
X014286Y008424D02*
X014165Y008424D01*
X012057Y006651D02*
X005971Y006651D01*
X005971Y006553D02*
X012022Y006553D01*
X012022Y006454D02*
X005971Y006454D01*
X005971Y006356D02*
X012054Y006356D01*
D16*
X013911Y007190D03*
X016871Y008790D03*
X015671Y009990D03*
X011431Y011830D03*
X019911Y007270D03*
X019831Y003830D03*
X020551Y001590D03*
X013911Y002230D03*
X013831Y001350D03*
X010791Y002630D03*
M02*
