G75*
G70*
%OFA0B0*%
%FSLAX24Y24*%
%IPPOS*%
%LPD*%
%AMOC8*
5,1,8,0,0,1.08239X$1,22.5*
%
%ADD10C,0.0611*%
%ADD11C,0.0730*%
%ADD12R,0.0867X0.0513*%
%ADD13R,0.0434X0.0356*%
%ADD14R,0.0444X0.0371*%
%ADD15R,0.0371X0.0444*%
%ADD16R,0.0710X0.1104*%
%ADD17R,0.0789X0.0474*%
%ADD18R,0.0867X0.0671*%
%ADD19R,0.0867X0.1576*%
%ADD20R,0.0671X0.1340*%
%ADD21R,0.0474X0.0297*%
%ADD22R,0.0190X0.0660*%
%ADD23R,0.0660X0.0190*%
%ADD24R,0.0395X0.0395*%
%ADD25R,0.0356X0.0434*%
%ADD26R,0.0474X0.0474*%
%ADD27R,0.0540X0.0710*%
%ADD28R,0.0060X0.0720*%
%ADD29C,0.1084*%
%ADD30C,0.0417*%
%ADD31C,0.0460*%
D10*
X006651Y004275D02*
X007182Y004275D01*
X007182Y008881D02*
X006651Y008881D01*
D11*
X006916Y007484D03*
X006916Y005673D03*
D12*
X007901Y005200D03*
X007901Y006184D03*
X007901Y006972D03*
X007901Y007956D03*
D13*
X009821Y008257D03*
X009821Y008769D03*
X011141Y009724D03*
X011141Y010236D03*
X015527Y012091D03*
X015527Y012602D03*
X009825Y007389D03*
X009825Y006877D03*
X021337Y006945D03*
X021337Y006433D03*
X021338Y005698D03*
X021338Y005186D03*
D14*
X020761Y004060D03*
X020289Y004060D03*
X020288Y003456D03*
X020761Y003456D03*
X018040Y002711D03*
X017568Y002711D03*
X017578Y002213D03*
X018050Y002213D03*
X018051Y001648D03*
X017578Y001648D03*
X015446Y001777D03*
X014973Y001777D03*
X015011Y002670D03*
X015484Y002670D03*
X014375Y002714D03*
X013902Y002714D03*
X016196Y010046D03*
X016669Y010046D03*
X017182Y010056D03*
X017655Y010056D03*
X018681Y010676D03*
X019153Y010676D03*
X016994Y011504D03*
X016521Y011504D03*
X016014Y011500D03*
X015542Y011500D03*
X014737Y011830D03*
X014264Y011830D03*
X013777Y011830D03*
X013304Y011830D03*
X016059Y012600D03*
X016532Y012600D03*
D15*
X018245Y010674D03*
X018245Y010202D03*
X020021Y008267D03*
X020021Y007794D03*
X022081Y008554D03*
X022081Y009026D03*
X022081Y009484D03*
X022081Y009956D03*
X020010Y005206D03*
X020010Y004733D03*
X018941Y002126D03*
X018941Y001654D03*
X016243Y001763D03*
X016243Y001290D03*
X013031Y002104D03*
X012461Y002104D03*
X012461Y002576D03*
X013031Y002576D03*
X007704Y002574D03*
X007704Y003047D03*
X012366Y005516D03*
X012366Y005989D03*
X012360Y007004D03*
X012360Y007476D03*
X010531Y009724D03*
X010531Y010196D03*
X010535Y010904D03*
X011146Y010901D03*
X011146Y011374D03*
X010535Y011376D03*
X011841Y012134D03*
X011841Y012606D03*
D16*
X013616Y011002D03*
X014403Y011002D03*
D17*
X021320Y009546D03*
X021320Y008561D03*
D18*
X011481Y003461D03*
X011481Y002556D03*
X011481Y001650D03*
D19*
X009000Y002556D03*
D20*
X009352Y005212D03*
X011478Y005212D03*
D21*
X019898Y002748D03*
X020961Y002748D03*
X020961Y002374D03*
X020961Y002000D03*
X019898Y002000D03*
D22*
X018639Y003402D03*
X018449Y003402D03*
X018249Y003402D03*
X018049Y003402D03*
X017849Y003402D03*
X017659Y003402D03*
X017459Y003402D03*
X017259Y003402D03*
X017069Y003402D03*
X016869Y003402D03*
X016669Y003402D03*
X016479Y003402D03*
X016279Y003402D03*
X016079Y003402D03*
X015889Y003402D03*
X015689Y003402D03*
X015489Y003402D03*
X015299Y003402D03*
X015099Y003402D03*
X014899Y003402D03*
X014709Y003402D03*
X014509Y003402D03*
X014309Y003402D03*
X014109Y003402D03*
X013919Y003402D03*
X013919Y009402D03*
X014109Y009402D03*
X014309Y009402D03*
X014509Y009402D03*
X014709Y009402D03*
X014899Y009402D03*
X015099Y009402D03*
X015299Y009402D03*
X015489Y009402D03*
X015689Y009402D03*
X015889Y009402D03*
X016079Y009402D03*
X016279Y009402D03*
X016479Y009402D03*
X016669Y009402D03*
X016869Y009402D03*
X017069Y009402D03*
X017259Y009402D03*
X017459Y009402D03*
X017659Y009402D03*
X017849Y009402D03*
X018049Y009402D03*
X018249Y009402D03*
X018449Y009402D03*
X018639Y009402D03*
D23*
X019279Y008762D03*
X019279Y008572D03*
X019279Y008372D03*
X019279Y008172D03*
X019279Y007972D03*
X019279Y007782D03*
X019279Y007582D03*
X019279Y007382D03*
X019279Y007192D03*
X019279Y006992D03*
X019279Y006792D03*
X019279Y006602D03*
X019279Y006402D03*
X019279Y006202D03*
X019279Y006012D03*
X019279Y005812D03*
X019279Y005612D03*
X019279Y005422D03*
X019279Y005222D03*
X019279Y005022D03*
X019279Y004832D03*
X019279Y004632D03*
X019279Y004432D03*
X019279Y004232D03*
X019279Y004042D03*
X013279Y004042D03*
X013279Y004232D03*
X013279Y004432D03*
X013279Y004632D03*
X013279Y004832D03*
X013279Y005022D03*
X013279Y005222D03*
X013279Y005422D03*
X013279Y005612D03*
X013279Y005812D03*
X013279Y006012D03*
X013279Y006202D03*
X013279Y006402D03*
X013279Y006602D03*
X013279Y006792D03*
X013279Y006992D03*
X013279Y007192D03*
X013279Y007382D03*
X013279Y007582D03*
X013279Y007782D03*
X013279Y007972D03*
X013279Y008172D03*
X013279Y008372D03*
X013279Y008572D03*
X013279Y008762D03*
D24*
X006805Y003049D03*
X006805Y002459D03*
D25*
X006952Y001644D03*
X007464Y001644D03*
X015052Y000958D03*
X015564Y000958D03*
X011035Y012261D03*
X010523Y012261D03*
D26*
X011840Y010911D03*
X011840Y010124D03*
X015536Y010829D03*
X016324Y010829D03*
X014261Y001747D03*
X014261Y000960D03*
D27*
X018423Y011487D03*
X019023Y011487D03*
D28*
X018723Y011487D03*
D29*
X024017Y008372D02*
X025021Y008372D01*
X025021Y006813D02*
X024017Y006813D01*
X024017Y005254D02*
X025021Y005254D01*
X025021Y003695D02*
X024017Y003695D01*
D30*
X020571Y005700D03*
X019831Y006040D03*
X020561Y006430D03*
X017121Y005970D03*
X015751Y007430D03*
X015751Y008130D03*
X014531Y008190D03*
X013931Y008180D03*
X011821Y008290D03*
X011821Y009070D03*
X012681Y010900D03*
X017541Y011020D03*
X019671Y009750D03*
X018271Y008690D03*
X012361Y006500D03*
X016311Y002670D03*
D31*
X013911Y002230D03*
X013831Y001350D03*
X010791Y002630D03*
X013911Y007190D03*
X016871Y008790D03*
X015671Y009990D03*
X011431Y011830D03*
X019911Y007270D03*
X019831Y003830D03*
X020551Y001590D03*
M02*
