%
M48
M72
T01C0.0197
T02C0.0240
T03C0.0354
T04C0.0433
T05C0.0669
%
T01
X12361Y6500
X13931Y8180
X14531Y8190
X15751Y8130
X15751Y7430
X18271Y8690
X19671Y9750
X17541Y11020
X12681Y10900
X11821Y9070
X11821Y8290
X17121Y5970
X19831Y6040
X20571Y5700
X20561Y6430
X16311Y2670
T02
X13911Y2230
X13831Y1350
X10791Y2630
X13911Y7190
X16871Y8790
X15671Y9990
X11431Y11830
X19911Y7270
X19831Y3830
X20551Y1590
T03
X6916Y4275
X6916Y8881
T04
X6916Y7484
X6916Y5673
T05
X24519Y5254
X24519Y6813
X24519Y8372
X24519Y3695
M30
