G75*
G70*
%OFA0B0*%
%FSLAX24Y24*%
%IPPOS*%
%LPD*%
%AMOC8*
5,1,8,0,0,1.08239X$1,22.5*
%
%ADD10C,0.0611*%
%ADD11C,0.0730*%
%ADD12R,0.0867X0.0513*%
%ADD13R,0.0190X0.0660*%
%ADD14R,0.0660X0.0190*%
%ADD15R,0.0434X0.0356*%
%ADD16R,0.0690X0.0474*%
%ADD17R,0.0444X0.0371*%
%ADD18R,0.0867X0.0671*%
%ADD19R,0.0867X0.1576*%
%ADD20R,0.0474X0.0297*%
%ADD21R,0.0371X0.0444*%
%ADD22R,0.0710X0.0540*%
%ADD23R,0.0720X0.0060*%
%ADD24R,0.0395X0.0395*%
%ADD25R,0.0356X0.0434*%
%ADD26R,0.0552X0.0395*%
%ADD27R,0.0592X0.0493*%
%ADD28R,0.0671X0.0848*%
%ADD29R,0.0848X0.0671*%
%ADD30C,0.0680*%
%ADD31R,0.0592X0.0710*%
%ADD32R,0.1340X0.0671*%
%ADD33C,0.0417*%
%ADD34C,0.0460*%
D10*
X006651Y006591D02*
X007182Y006591D01*
X007182Y011197D02*
X006651Y011197D01*
D11*
X006916Y009800D03*
X006916Y007989D03*
D12*
X007901Y007516D03*
X007901Y008500D03*
X007901Y009288D03*
X007901Y010272D03*
D13*
X013728Y012091D03*
X013918Y012091D03*
X014118Y012091D03*
X014318Y012091D03*
X014518Y012091D03*
X014708Y012091D03*
X014908Y012091D03*
X015108Y012091D03*
X015298Y012091D03*
X015498Y012091D03*
X015698Y012091D03*
X015888Y012091D03*
X016088Y012091D03*
X016288Y012091D03*
X016478Y012091D03*
X016678Y012091D03*
X016878Y012091D03*
X017068Y012091D03*
X017268Y012091D03*
X017468Y012091D03*
X017658Y012091D03*
X017858Y012091D03*
X018058Y012091D03*
X018258Y012091D03*
X018448Y012091D03*
X018448Y006091D03*
X018258Y006091D03*
X018058Y006091D03*
X017858Y006091D03*
X017658Y006091D03*
X017468Y006091D03*
X017268Y006091D03*
X017068Y006091D03*
X016878Y006091D03*
X016678Y006091D03*
X016478Y006091D03*
X016288Y006091D03*
X016088Y006091D03*
X015888Y006091D03*
X015698Y006091D03*
X015498Y006091D03*
X015298Y006091D03*
X015108Y006091D03*
X014908Y006091D03*
X014708Y006091D03*
X014518Y006091D03*
X014318Y006091D03*
X014118Y006091D03*
X013918Y006091D03*
X013728Y006091D03*
D14*
X013088Y006731D03*
X013088Y006921D03*
X013088Y007121D03*
X013088Y007321D03*
X013088Y007521D03*
X013088Y007711D03*
X013088Y007911D03*
X013088Y008111D03*
X013088Y008301D03*
X013088Y008501D03*
X013088Y008701D03*
X013088Y008891D03*
X013088Y009091D03*
X013088Y009291D03*
X013088Y009481D03*
X013088Y009681D03*
X013088Y009881D03*
X013088Y010071D03*
X013088Y010271D03*
X013088Y010471D03*
X013088Y010661D03*
X013088Y010861D03*
X013088Y011061D03*
X013088Y011261D03*
X013088Y011451D03*
X019088Y011451D03*
X019088Y011261D03*
X019088Y011061D03*
X019088Y010861D03*
X019088Y010661D03*
X019088Y010471D03*
X019088Y010271D03*
X019088Y010071D03*
X019088Y009881D03*
X019088Y009681D03*
X019088Y009481D03*
X019088Y009291D03*
X019088Y009091D03*
X019088Y008891D03*
X019088Y008701D03*
X019088Y008501D03*
X019088Y008301D03*
X019088Y008111D03*
X019088Y007911D03*
X019088Y007711D03*
X019088Y007521D03*
X019088Y007321D03*
X019088Y007121D03*
X019088Y006921D03*
X019088Y006731D03*
D15*
X021430Y008949D03*
X021430Y009461D03*
X021430Y010225D03*
X021430Y010737D03*
X012410Y005012D03*
X012410Y004500D03*
X009885Y009181D03*
X009885Y009693D03*
X009885Y010473D03*
X009885Y010985D03*
X010103Y011953D03*
X010103Y012465D03*
D16*
X020277Y012284D03*
X020277Y011264D03*
D17*
X020930Y011272D03*
X021403Y011272D03*
X021399Y012284D03*
X020926Y012284D03*
X020481Y010268D03*
X020009Y010268D03*
X019887Y008705D03*
X019887Y008296D03*
X020359Y008296D03*
X020359Y008705D03*
X016292Y013052D03*
X015820Y013052D03*
X016410Y014465D03*
X016883Y014465D03*
X019477Y014914D03*
X019950Y014914D03*
X012320Y010197D03*
X011847Y010197D03*
X011847Y009296D03*
X012320Y009296D03*
X011092Y013339D03*
X010619Y013339D03*
X010107Y013339D03*
X009635Y013339D03*
X013135Y005012D03*
X013143Y004552D03*
X013615Y004552D03*
X013607Y005012D03*
X010344Y002520D03*
X009871Y002520D03*
D18*
X013623Y002280D03*
X013623Y003185D03*
X013623Y001374D03*
D19*
X016103Y002280D03*
D20*
X019639Y004024D03*
X019639Y004398D03*
X019639Y004772D03*
X020702Y004772D03*
X020702Y004024D03*
D21*
X019631Y005587D03*
X019631Y006059D03*
X017851Y005398D03*
X017851Y004926D03*
X015292Y004985D03*
X015292Y005457D03*
X017351Y002748D03*
X017351Y002276D03*
X011788Y008288D03*
X011788Y008760D03*
X011095Y011957D03*
X011095Y012430D03*
X014344Y013185D03*
X014344Y013658D03*
X013473Y014953D03*
X013473Y015426D03*
X012572Y015414D03*
X012572Y014941D03*
X021989Y011268D03*
X021989Y010796D03*
X023296Y013193D03*
X023296Y013666D03*
D22*
X017643Y014161D03*
X017643Y014761D03*
X015013Y014761D03*
X015013Y014161D03*
D23*
X015013Y014461D03*
X017643Y014461D03*
D24*
X012434Y002280D03*
X011844Y002280D03*
D25*
X011844Y003189D03*
X012355Y003189D03*
X010147Y014150D03*
X009635Y014150D03*
D26*
X011092Y013969D03*
X011092Y014678D03*
X011792Y006351D03*
X011792Y005642D03*
D27*
X012576Y013611D03*
X013477Y013611D03*
X013477Y014335D03*
X012576Y014339D03*
D28*
X022469Y014274D03*
X022469Y013191D03*
D29*
X019712Y014158D03*
X018629Y014158D03*
D30*
X023154Y010902D02*
X023754Y010902D01*
X023754Y009902D02*
X023154Y009902D01*
X023154Y008902D02*
X023754Y008902D01*
X023754Y007902D02*
X023154Y007902D01*
D31*
X010655Y003949D03*
X009867Y003949D03*
D32*
X009867Y005863D03*
X009867Y007520D03*
D33*
X010454Y008430D03*
X010462Y009178D03*
X010450Y009689D03*
X008639Y010272D03*
X011647Y011130D03*
X012351Y010764D03*
X012316Y009733D03*
X013903Y010835D03*
X012525Y012410D03*
X012072Y012815D03*
X014737Y012831D03*
X016887Y012973D03*
X016887Y013760D03*
X018926Y012748D03*
X019513Y012748D03*
X021682Y013142D03*
X021682Y013733D03*
X020509Y014158D03*
X018926Y014914D03*
X014072Y014658D03*
X012036Y016095D03*
X020714Y010780D03*
X021989Y010272D03*
X022005Y009461D03*
X020859Y008300D03*
X019883Y007752D03*
X020336Y009178D03*
X017351Y008615D03*
X020698Y006056D03*
X018844Y005402D03*
X015962Y005410D03*
X014320Y005213D03*
X012647Y006000D03*
D34*
X012237Y008850D03*
M02*
