G75*
G70*
%OFA0B0*%
%FSLAX24Y24*%
%IPPOS*%
%LPD*%
%AMOC8*
5,1,8,0,0,1.08239X$1,22.5*
%
%ADD10C,0.0080*%
%ADD11R,0.0098X0.0098*%
%ADD12C,0.0060*%
D10*
X008779Y003743D02*
X008726Y003797D01*
X008726Y004010D01*
X008779Y004063D01*
X008886Y004063D01*
X008940Y004010D01*
X009094Y004010D02*
X009148Y004063D01*
X009254Y004063D01*
X009308Y004010D01*
X009308Y003957D01*
X009254Y003903D01*
X009308Y003850D01*
X009308Y003797D01*
X009254Y003743D01*
X009148Y003743D01*
X009094Y003797D01*
X009201Y003903D02*
X009254Y003903D01*
X008940Y003797D02*
X008886Y003743D01*
X008779Y003743D01*
X008823Y002654D02*
X008769Y002601D01*
X008769Y002387D01*
X008823Y002334D01*
X008929Y002334D01*
X008983Y002387D01*
X009138Y002494D02*
X009351Y002494D01*
X009298Y002334D02*
X009298Y002654D01*
X009138Y002494D01*
X008983Y002601D02*
X008929Y002654D01*
X008823Y002654D01*
X010837Y001990D02*
X010837Y001570D01*
X011117Y001570D01*
X011298Y001570D02*
X011578Y001570D01*
X011758Y001570D02*
X011968Y001570D01*
X012038Y001640D01*
X012038Y001920D01*
X011968Y001990D01*
X011758Y001990D01*
X011758Y001570D01*
X012218Y001570D02*
X012499Y001570D01*
X012358Y001570D02*
X012358Y001990D01*
X012218Y001850D01*
X011578Y001990D02*
X011298Y001990D01*
X011298Y001570D01*
X011298Y001780D02*
X011438Y001780D01*
X011988Y003471D02*
X011988Y003892D01*
X012198Y003892D01*
X012268Y003822D01*
X012268Y003682D01*
X012198Y003612D01*
X011988Y003612D01*
X012128Y003612D02*
X012268Y003471D01*
X012448Y003682D02*
X012728Y003682D01*
X012658Y003892D02*
X012658Y003471D01*
X012448Y003682D02*
X012658Y003892D01*
X012120Y004546D02*
X011700Y004546D01*
X011700Y004756D01*
X011770Y004827D01*
X011910Y004827D01*
X011980Y004756D01*
X011980Y004546D01*
X011980Y004686D02*
X012120Y004827D01*
X012050Y005007D02*
X011910Y005007D01*
X011910Y005217D01*
X011980Y005287D01*
X012050Y005287D01*
X012120Y005217D01*
X012120Y005077D01*
X012050Y005007D01*
X011910Y005007D02*
X011770Y005147D01*
X011700Y005287D01*
X013214Y005273D02*
X013268Y005220D01*
X013374Y005220D01*
X013428Y005273D01*
X013477Y005361D02*
X013477Y005641D01*
X013337Y005641D02*
X013618Y005361D01*
X013583Y005486D02*
X013636Y005540D01*
X013743Y005540D01*
X013796Y005486D01*
X013796Y005433D01*
X013583Y005220D01*
X013796Y005220D01*
X013951Y005380D02*
X014164Y005380D01*
X014111Y005220D02*
X014111Y005540D01*
X013951Y005380D01*
X013618Y005501D02*
X013337Y005501D01*
X013374Y005540D02*
X013268Y005540D01*
X013214Y005486D01*
X013214Y005273D01*
X013337Y005361D02*
X013618Y005641D01*
X013428Y005486D02*
X013374Y005540D01*
X013945Y004741D02*
X013891Y004687D01*
X013891Y004474D01*
X013945Y004420D01*
X014052Y004420D01*
X014105Y004474D01*
X014260Y004420D02*
X014473Y004634D01*
X014473Y004687D01*
X014420Y004741D01*
X014313Y004741D01*
X014260Y004687D01*
X014105Y004687D02*
X014052Y004741D01*
X013945Y004741D01*
X014260Y004420D02*
X014473Y004420D01*
X014628Y004474D02*
X014681Y004420D01*
X014788Y004420D01*
X014842Y004474D01*
X014842Y004527D01*
X014788Y004580D01*
X014735Y004580D01*
X014788Y004580D02*
X014842Y004634D01*
X014842Y004687D01*
X014788Y004741D01*
X014681Y004741D01*
X014628Y004687D01*
X015499Y004828D02*
X015820Y004828D01*
X015820Y004721D02*
X015820Y004935D01*
X015766Y005089D02*
X015820Y005143D01*
X015820Y005250D01*
X015766Y005303D01*
X015713Y005303D01*
X015660Y005250D01*
X015660Y005196D01*
X015660Y005250D02*
X015606Y005303D01*
X015553Y005303D01*
X015499Y005250D01*
X015499Y005143D01*
X015553Y005089D01*
X015508Y005281D02*
X015508Y005681D01*
X015499Y004828D02*
X015606Y004721D01*
X015553Y004566D02*
X015499Y004513D01*
X015499Y004406D01*
X015553Y004353D01*
X015766Y004353D01*
X015820Y004406D01*
X015820Y004513D01*
X015766Y004566D01*
X017458Y005271D02*
X017458Y005671D01*
X018638Y006331D02*
X018848Y006331D01*
X018848Y006541D01*
X019838Y005905D02*
X019838Y005692D01*
X019998Y005692D01*
X019945Y005799D01*
X019945Y005852D01*
X019998Y005905D01*
X020105Y005905D01*
X020158Y005852D01*
X020158Y005745D01*
X020105Y005692D01*
X020105Y005537D02*
X020158Y005484D01*
X020158Y005377D01*
X020105Y005323D01*
X019891Y005323D01*
X019838Y005377D01*
X019838Y005484D01*
X019891Y005537D01*
X017985Y004063D02*
X017985Y003849D01*
X017771Y004063D01*
X017718Y004063D01*
X017665Y004009D01*
X017665Y003903D01*
X017718Y003849D01*
X017665Y003588D02*
X017985Y003588D01*
X017985Y003694D02*
X017985Y003481D01*
X017932Y003326D02*
X017985Y003273D01*
X017985Y003166D01*
X017932Y003113D01*
X017718Y003113D01*
X017665Y003166D01*
X017665Y003273D01*
X017718Y003326D01*
X017771Y003481D02*
X017665Y003588D01*
X017394Y001920D02*
X017180Y001920D01*
X017127Y001866D01*
X017127Y001760D01*
X017180Y001706D01*
X017234Y001706D01*
X017287Y001760D01*
X017287Y001920D01*
X017394Y001920D02*
X017447Y001866D01*
X017447Y001760D01*
X017394Y001706D01*
X017447Y001551D02*
X017447Y001338D01*
X017447Y001445D02*
X017127Y001445D01*
X017234Y001338D01*
X017180Y001183D02*
X017127Y001130D01*
X017127Y001023D01*
X017180Y000970D01*
X017394Y000970D01*
X017447Y001023D01*
X017447Y001130D01*
X017394Y001183D01*
X023269Y005634D02*
X023339Y005564D01*
X023409Y005564D01*
X023479Y005634D01*
X023479Y005774D01*
X023549Y005844D01*
X023619Y005844D01*
X023689Y005774D01*
X023689Y005634D01*
X023619Y005564D01*
X023269Y005634D02*
X023269Y005774D01*
X023339Y005844D01*
X023269Y006024D02*
X023549Y006024D01*
X023689Y006165D01*
X023549Y006305D01*
X023269Y006305D01*
X023409Y006485D02*
X023269Y006625D01*
X023689Y006625D01*
X023689Y006485D02*
X023689Y006765D01*
X023664Y006992D02*
X023664Y007272D01*
X023704Y007402D02*
X023954Y007652D01*
X023954Y008152D01*
X023704Y008402D01*
X023954Y008652D01*
X023954Y009152D01*
X023704Y009402D01*
X023954Y009652D01*
X023954Y010152D01*
X023704Y010402D01*
X023954Y010652D01*
X023954Y011152D01*
X023704Y011402D01*
X023204Y011402D01*
X022954Y011152D01*
X022954Y010652D01*
X023204Y010402D01*
X022954Y010152D01*
X022954Y009652D01*
X023204Y009402D01*
X022954Y009152D01*
X022954Y008652D01*
X023204Y008402D01*
X022954Y008152D01*
X022954Y007652D01*
X023204Y007402D01*
X023704Y007402D01*
X023664Y007132D02*
X023243Y007132D01*
X023384Y006992D01*
X020719Y007982D02*
X020506Y007769D01*
X020506Y007716D01*
X020351Y007716D02*
X020138Y007716D01*
X020244Y007716D02*
X020244Y008036D01*
X020138Y007929D01*
X019983Y007982D02*
X019929Y008036D01*
X019823Y008036D01*
X019769Y007982D01*
X019769Y007769D01*
X019823Y007716D01*
X019929Y007716D01*
X019983Y007769D01*
X019898Y007521D02*
X019498Y007521D01*
X020506Y008036D02*
X020719Y008036D01*
X020719Y007982D01*
X020719Y008912D02*
X020506Y008912D01*
X020613Y008912D02*
X020613Y009233D01*
X020506Y009126D01*
X020736Y009178D02*
X020736Y008968D01*
X021156Y008968D01*
X021016Y008968D02*
X021016Y009178D01*
X020946Y009248D01*
X020806Y009248D01*
X020736Y009178D01*
X020806Y009428D02*
X020876Y009428D01*
X020946Y009498D01*
X020946Y009639D01*
X021016Y009709D01*
X021086Y009709D01*
X021156Y009639D01*
X021156Y009498D01*
X021086Y009428D01*
X021016Y009428D01*
X020946Y009498D01*
X020946Y009639D02*
X020876Y009709D01*
X020806Y009709D01*
X020736Y009639D01*
X020736Y009498D01*
X020806Y009428D01*
X021016Y009108D02*
X021156Y009248D01*
X020351Y008912D02*
X020138Y008912D01*
X020244Y008912D02*
X020244Y009233D01*
X020138Y009126D01*
X019983Y009179D02*
X019929Y009233D01*
X019823Y009233D01*
X019769Y009179D01*
X019769Y008966D01*
X019823Y008912D01*
X019929Y008912D01*
X019983Y008966D01*
X019908Y009481D02*
X019508Y009481D01*
X020736Y010047D02*
X020736Y010257D01*
X020806Y010327D01*
X020946Y010327D01*
X021016Y010257D01*
X021016Y010047D01*
X021156Y010047D02*
X020736Y010047D01*
X021016Y010187D02*
X021156Y010327D01*
X021156Y010507D02*
X021086Y010507D01*
X020806Y010787D01*
X020736Y010787D01*
X020736Y010507D01*
X020327Y010795D02*
X020114Y010582D01*
X020114Y010528D01*
X019959Y010582D02*
X019905Y010528D01*
X019799Y010528D01*
X019745Y010582D01*
X019745Y010795D01*
X019799Y010848D01*
X019905Y010848D01*
X019959Y010795D01*
X020114Y010848D02*
X020327Y010848D01*
X020327Y010795D01*
X019908Y011461D02*
X019508Y011461D01*
X018848Y011641D02*
X018848Y011851D01*
X018638Y011851D01*
X016668Y012511D02*
X016668Y012911D01*
X016189Y012705D02*
X016189Y012491D01*
X016136Y012438D01*
X016029Y012438D01*
X015976Y012491D01*
X016189Y012705D01*
X016136Y012758D01*
X016029Y012758D01*
X015976Y012705D01*
X015976Y012491D01*
X015821Y012438D02*
X015608Y012438D01*
X015714Y012438D02*
X015714Y012758D01*
X015608Y012651D01*
X015453Y012705D02*
X015399Y012758D01*
X015293Y012758D01*
X015239Y012705D01*
X015239Y012491D01*
X015293Y012438D01*
X015399Y012438D01*
X015453Y012491D01*
X014688Y012511D02*
X014688Y012911D01*
X014136Y013318D02*
X014083Y013265D01*
X013869Y013265D01*
X013816Y013318D01*
X013816Y013425D01*
X013869Y013478D01*
X013869Y013633D02*
X013816Y013686D01*
X013816Y013793D01*
X013869Y013847D01*
X013923Y013847D01*
X014136Y013633D01*
X014136Y013847D01*
X014083Y014001D02*
X013869Y014001D01*
X013816Y014055D01*
X013816Y014162D01*
X013869Y014215D01*
X014083Y014001D01*
X014136Y014055D01*
X014136Y014162D01*
X014083Y014215D01*
X013869Y014215D01*
X014613Y013911D02*
X014613Y015011D01*
X014615Y015028D01*
X014619Y015045D01*
X014626Y015061D01*
X014636Y015075D01*
X014649Y015088D01*
X014663Y015098D01*
X014679Y015105D01*
X014696Y015109D01*
X014713Y015111D01*
X015313Y015111D01*
X015330Y015109D01*
X015347Y015105D01*
X015363Y015098D01*
X015377Y015088D01*
X015390Y015075D01*
X015400Y015061D01*
X015407Y015045D01*
X015411Y015028D01*
X015413Y015011D01*
X015413Y013911D01*
X015411Y013894D01*
X015407Y013877D01*
X015400Y013861D01*
X015390Y013847D01*
X015377Y013834D01*
X015363Y013824D01*
X015347Y013817D01*
X015330Y013813D01*
X015313Y013811D01*
X014713Y013811D01*
X014696Y013813D01*
X014679Y013817D01*
X014663Y013824D01*
X014649Y013834D01*
X014636Y013847D01*
X014626Y013861D01*
X014619Y013877D01*
X014615Y013894D01*
X014613Y013911D01*
X014136Y013425D02*
X014083Y013478D01*
X014136Y013425D02*
X014136Y013318D01*
X015779Y013991D02*
X015832Y013938D01*
X015939Y013938D01*
X015992Y013991D01*
X016147Y013938D02*
X016360Y013938D01*
X016254Y013938D02*
X016254Y014258D01*
X016147Y014151D01*
X015992Y014205D02*
X015939Y014258D01*
X015832Y014258D01*
X015779Y014205D01*
X015779Y013991D01*
X016515Y014098D02*
X016729Y014098D01*
X016675Y014258D02*
X016515Y014098D01*
X016675Y013938D02*
X016675Y014258D01*
X017243Y013911D02*
X017243Y015011D01*
X017245Y015028D01*
X017249Y015045D01*
X017256Y015061D01*
X017266Y015075D01*
X017279Y015088D01*
X017293Y015098D01*
X017309Y015105D01*
X017326Y015109D01*
X017343Y015111D01*
X017943Y015111D01*
X017960Y015109D01*
X017977Y015105D01*
X017993Y015098D01*
X018007Y015088D01*
X018020Y015075D01*
X018030Y015061D01*
X018037Y015045D01*
X018041Y015028D01*
X018043Y015011D01*
X018043Y013911D01*
X018041Y013894D01*
X018037Y013877D01*
X018030Y013861D01*
X018020Y013847D01*
X018007Y013834D01*
X017993Y013824D01*
X017977Y013817D01*
X017960Y013813D01*
X017943Y013811D01*
X017343Y013811D01*
X017326Y013813D01*
X017309Y013817D01*
X017293Y013824D01*
X017279Y013834D01*
X017266Y013847D01*
X017256Y013861D01*
X017249Y013877D01*
X017245Y013894D01*
X017243Y013911D01*
X018510Y013804D02*
X018510Y013524D01*
X018580Y013454D01*
X018720Y013454D01*
X018790Y013524D01*
X018971Y013454D02*
X019251Y013734D01*
X019251Y013804D01*
X019181Y013874D01*
X019041Y013874D01*
X018971Y013804D01*
X018790Y013804D02*
X018720Y013874D01*
X018580Y013874D01*
X018510Y013804D01*
X018971Y013454D02*
X019251Y013454D01*
X019431Y013524D02*
X019431Y013594D01*
X019501Y013664D01*
X019641Y013664D01*
X019711Y013594D01*
X019711Y013524D01*
X019641Y013454D01*
X019501Y013454D01*
X019431Y013524D01*
X019501Y013664D02*
X019431Y013734D01*
X019431Y013804D01*
X019501Y013874D01*
X019641Y013874D01*
X019711Y013804D01*
X019711Y013734D01*
X019641Y013664D01*
X021006Y012758D02*
X021006Y012545D01*
X021059Y012491D01*
X021166Y012491D01*
X021219Y012545D01*
X021374Y012491D02*
X021587Y012491D01*
X021481Y012491D02*
X021481Y012811D01*
X021374Y012705D01*
X021219Y012758D02*
X021166Y012811D01*
X021059Y012811D01*
X021006Y012758D01*
X021765Y012414D02*
X021765Y012307D01*
X021818Y012253D01*
X021871Y012253D01*
X021925Y012307D01*
X021925Y012467D01*
X022032Y012467D02*
X021818Y012467D01*
X021765Y012414D01*
X022032Y012467D02*
X022085Y012414D01*
X022085Y012307D01*
X022032Y012253D01*
X022085Y012099D02*
X022085Y011885D01*
X021871Y012099D01*
X021818Y012099D01*
X021765Y012045D01*
X021765Y011938D01*
X021818Y011885D01*
X021818Y011730D02*
X021765Y011677D01*
X021765Y011570D01*
X021818Y011517D01*
X022032Y011517D01*
X022085Y011570D01*
X022085Y011677D01*
X022032Y011730D01*
X021591Y011746D02*
X021538Y011800D01*
X021431Y011800D01*
X021378Y011746D01*
X021223Y011746D02*
X021170Y011800D01*
X021063Y011800D01*
X021009Y011746D01*
X021009Y011533D01*
X021063Y011479D01*
X021170Y011479D01*
X021223Y011533D01*
X021378Y011479D02*
X021591Y011693D01*
X021591Y011746D01*
X021591Y011479D02*
X021378Y011479D01*
X023092Y012236D02*
X023145Y012182D01*
X023358Y012182D01*
X023412Y012236D01*
X023412Y012342D01*
X023358Y012396D01*
X023358Y012550D02*
X023305Y012550D01*
X023252Y012604D01*
X023252Y012711D01*
X023305Y012764D01*
X023358Y012764D01*
X023412Y012711D01*
X023412Y012604D01*
X023358Y012550D01*
X023252Y012604D02*
X023198Y012550D01*
X023145Y012550D01*
X023092Y012604D01*
X023092Y012711D01*
X023145Y012764D01*
X023198Y012764D01*
X023252Y012711D01*
X023145Y012396D02*
X023092Y012342D01*
X023092Y012236D01*
X023454Y011822D02*
X023454Y011542D01*
X023243Y011752D01*
X023664Y011752D01*
X021875Y014340D02*
X021595Y014340D01*
X021525Y014410D01*
X021525Y014550D01*
X021595Y014621D01*
X021595Y014801D02*
X021525Y014871D01*
X021525Y015011D01*
X021595Y015081D01*
X021665Y015081D01*
X021945Y014801D01*
X021945Y015081D01*
X021945Y015261D02*
X021875Y015261D01*
X021595Y015541D01*
X021525Y015541D01*
X021525Y015261D01*
X021875Y014621D02*
X021945Y014550D01*
X021945Y014410D01*
X021875Y014340D01*
X020507Y015174D02*
X020454Y015121D01*
X020347Y015121D01*
X020293Y015174D01*
X020293Y015228D01*
X020347Y015281D01*
X020454Y015281D01*
X020507Y015228D01*
X020507Y015174D01*
X020454Y015281D02*
X020507Y015335D01*
X020507Y015388D01*
X020454Y015441D01*
X020347Y015441D01*
X020293Y015388D01*
X020293Y015335D01*
X020347Y015281D01*
X020139Y015121D02*
X019925Y015121D01*
X020032Y015121D02*
X020032Y015441D01*
X019925Y015335D01*
X019770Y015388D02*
X019717Y015441D01*
X019610Y015441D01*
X019557Y015388D01*
X019557Y015174D01*
X019610Y015121D01*
X019717Y015121D01*
X019770Y015174D01*
X018399Y015238D02*
X018119Y015238D01*
X018259Y015238D02*
X018259Y015659D01*
X018119Y015519D01*
X017939Y015659D02*
X017799Y015659D01*
X017869Y015659D02*
X017869Y015308D01*
X017799Y015238D01*
X017729Y015238D01*
X017658Y015308D01*
X017478Y015308D02*
X017478Y015379D01*
X017408Y015449D01*
X017268Y015449D01*
X017198Y015519D01*
X017198Y015589D01*
X017268Y015659D01*
X017408Y015659D01*
X017478Y015589D01*
X017478Y015308D02*
X017408Y015238D01*
X017268Y015238D01*
X017198Y015308D01*
X015836Y015231D02*
X015556Y015231D01*
X015836Y015511D01*
X015836Y015581D01*
X015766Y015651D01*
X015626Y015651D01*
X015556Y015581D01*
X015376Y015651D02*
X015236Y015651D01*
X015306Y015651D02*
X015306Y015301D01*
X015236Y015231D01*
X015166Y015231D01*
X015095Y015301D01*
X014915Y015301D02*
X014915Y015371D01*
X014845Y015441D01*
X014705Y015441D01*
X014635Y015511D01*
X014635Y015581D01*
X014705Y015651D01*
X014845Y015651D01*
X014915Y015581D01*
X014915Y015301D02*
X014845Y015231D01*
X014705Y015231D01*
X014635Y015301D01*
X013266Y015401D02*
X013053Y015614D01*
X012999Y015614D01*
X012946Y015561D01*
X012946Y015454D01*
X012999Y015401D01*
X012999Y015246D02*
X012946Y015193D01*
X012946Y015086D01*
X012999Y015033D01*
X013213Y015033D01*
X013266Y015086D01*
X013266Y015193D01*
X013213Y015246D01*
X013266Y015401D02*
X013266Y015614D01*
X013213Y015769D02*
X013266Y015823D01*
X013266Y015929D01*
X013213Y015983D01*
X013159Y015983D01*
X013106Y015929D01*
X013106Y015769D01*
X013213Y015769D01*
X013106Y015769D02*
X012999Y015876D01*
X012946Y015983D01*
X012365Y015917D02*
X012365Y015811D01*
X012311Y015757D01*
X012204Y015757D02*
X012151Y015864D01*
X012151Y015917D01*
X012204Y015971D01*
X012311Y015971D01*
X012365Y015917D01*
X012204Y015757D02*
X012044Y015757D01*
X012044Y015971D01*
X012098Y015603D02*
X012044Y015549D01*
X012044Y015442D01*
X012098Y015389D01*
X012098Y015234D02*
X012044Y015181D01*
X012044Y015074D01*
X012098Y015021D01*
X012311Y015021D01*
X012365Y015074D01*
X012365Y015181D01*
X012311Y015234D01*
X012365Y015389D02*
X012151Y015603D01*
X012098Y015603D01*
X012365Y015603D02*
X012365Y015389D01*
X010421Y014860D02*
X010141Y014860D01*
X010141Y014650D01*
X010281Y014720D01*
X010351Y014720D01*
X010421Y014650D01*
X010421Y014510D01*
X010351Y014440D01*
X010211Y014440D01*
X010141Y014510D01*
X009961Y014440D02*
X009821Y014580D01*
X009891Y014580D02*
X009681Y014580D01*
X009681Y014440D02*
X009681Y014860D01*
X009891Y014860D01*
X009961Y014790D01*
X009961Y014650D01*
X009891Y014580D01*
X009377Y013670D02*
X009377Y013349D01*
X009483Y013349D02*
X009270Y013349D01*
X009115Y013349D02*
X008901Y013349D01*
X009115Y013563D01*
X009115Y013616D01*
X009062Y013670D01*
X008955Y013670D01*
X008901Y013616D01*
X008747Y013616D02*
X008693Y013670D01*
X008586Y013670D01*
X008533Y013616D01*
X008533Y013403D01*
X008586Y013349D01*
X008693Y013349D01*
X008747Y013403D01*
X009270Y013563D02*
X009377Y013670D01*
X010502Y013223D02*
X010502Y013009D01*
X010555Y012956D01*
X010662Y012956D01*
X010715Y013009D01*
X010870Y012956D02*
X011083Y013169D01*
X011083Y013223D01*
X011030Y013276D01*
X010923Y013276D01*
X010870Y013223D01*
X010715Y013223D02*
X010662Y013276D01*
X010555Y013276D01*
X010502Y013223D01*
X010870Y012956D02*
X011083Y012956D01*
X011238Y012956D02*
X011452Y013169D01*
X011452Y013223D01*
X011398Y013276D01*
X011292Y013276D01*
X011238Y013223D01*
X011238Y012956D02*
X011452Y012956D01*
X010888Y012565D02*
X010835Y012618D01*
X010781Y012618D01*
X010728Y012565D01*
X010728Y012405D01*
X010835Y012405D01*
X010888Y012458D01*
X010888Y012565D01*
X010728Y012405D02*
X010621Y012512D01*
X010568Y012618D01*
X010621Y012250D02*
X010568Y012197D01*
X010568Y012090D01*
X010621Y012036D01*
X010835Y012036D01*
X010888Y012090D01*
X010888Y012197D01*
X010835Y012250D01*
X009813Y012279D02*
X009673Y012139D01*
X009673Y012209D02*
X009673Y011999D01*
X009813Y011999D02*
X009393Y011999D01*
X009393Y012209D01*
X009463Y012279D01*
X009603Y012279D01*
X009673Y012209D01*
X009743Y012459D02*
X009813Y012530D01*
X009813Y012670D01*
X009743Y012740D01*
X009673Y012740D01*
X009603Y012670D01*
X009603Y012600D01*
X009603Y012670D02*
X009533Y012740D01*
X009463Y012740D01*
X009393Y012670D01*
X009393Y012530D01*
X009463Y012459D01*
X009414Y011626D02*
X009414Y011346D01*
X009134Y011626D01*
X009063Y011626D01*
X008993Y011556D01*
X008993Y011416D01*
X009063Y011346D01*
X009063Y011166D02*
X009204Y011166D01*
X009274Y011096D01*
X009274Y010885D01*
X009414Y010885D02*
X008993Y010885D01*
X008993Y011096D01*
X009063Y011166D01*
X009274Y011025D02*
X009414Y011166D01*
X011216Y009937D02*
X011216Y009723D01*
X011269Y009670D01*
X011376Y009670D01*
X011429Y009723D01*
X011584Y009670D02*
X011797Y009670D01*
X011691Y009670D02*
X011691Y009990D01*
X011584Y009883D01*
X011429Y009937D02*
X011376Y009990D01*
X011269Y009990D01*
X011216Y009937D01*
X011952Y009990D02*
X011952Y009830D01*
X012059Y009883D01*
X012112Y009883D01*
X012166Y009830D01*
X012166Y009723D01*
X012112Y009670D01*
X012006Y009670D01*
X011952Y009723D01*
X011952Y009990D02*
X012166Y009990D01*
X012278Y010671D02*
X012678Y010671D01*
X013328Y011641D02*
X013328Y011851D01*
X013538Y011851D01*
X012166Y009089D02*
X012059Y009035D01*
X011952Y008928D01*
X012112Y008928D01*
X012166Y008875D01*
X012166Y008822D01*
X012112Y008768D01*
X012006Y008768D01*
X011952Y008822D01*
X011952Y008928D01*
X011797Y008768D02*
X011584Y008768D01*
X011691Y008768D02*
X011691Y009089D01*
X011584Y008982D01*
X011429Y009035D02*
X011376Y009089D01*
X011269Y009089D01*
X011216Y009035D01*
X011216Y008822D01*
X011269Y008768D01*
X011376Y008768D01*
X011429Y008822D01*
X011630Y008107D02*
X011576Y008053D01*
X011576Y007840D01*
X011630Y007786D01*
X011737Y007786D01*
X011790Y007840D01*
X011945Y007840D02*
X011998Y007786D01*
X012105Y007786D01*
X012158Y007840D01*
X012158Y008053D01*
X012105Y008107D01*
X011998Y008107D01*
X011945Y008053D01*
X011945Y008000D01*
X011998Y007947D01*
X012158Y007947D01*
X011790Y008053D02*
X011737Y008107D01*
X011630Y008107D01*
X012278Y008701D02*
X012678Y008701D01*
X009804Y008647D02*
X009383Y008647D01*
X009523Y008507D01*
X009453Y008327D02*
X009593Y008327D01*
X009663Y008257D01*
X009663Y008047D01*
X009663Y008187D02*
X009804Y008327D01*
X009804Y008507D02*
X009804Y008787D01*
X009453Y008327D02*
X009383Y008257D01*
X009383Y008047D01*
X009804Y008047D01*
X012278Y006731D02*
X012678Y006731D01*
X013328Y006541D02*
X013328Y006331D01*
X013538Y006331D01*
X013658Y006511D02*
X013508Y006661D01*
D11*
X012090Y002280D03*
D12*
X018169Y002179D02*
X018169Y001952D01*
X018169Y002122D02*
X018396Y002122D01*
X018396Y002179D02*
X018396Y001952D01*
X018396Y002179D02*
X018282Y002292D01*
X018169Y002179D01*
X018537Y002292D02*
X018764Y002292D01*
X018651Y002292D02*
X018651Y001952D01*
X018905Y002008D02*
X018962Y001952D01*
X019076Y001952D01*
X019132Y002008D01*
X019132Y002065D01*
X019076Y002122D01*
X018962Y002122D01*
X018905Y002179D01*
X018905Y002235D01*
X018962Y002292D01*
X019076Y002292D01*
X019132Y002235D01*
X019274Y002179D02*
X019387Y002292D01*
X019501Y002179D01*
X019501Y001952D01*
X019642Y001952D02*
X019642Y002292D01*
X019755Y002179D01*
X019869Y002292D01*
X019869Y001952D01*
X020010Y002008D02*
X020067Y001952D01*
X020180Y001952D01*
X020237Y002008D01*
X020237Y002065D01*
X020180Y002122D01*
X020124Y002122D01*
X020180Y002122D02*
X020237Y002179D01*
X020237Y002235D01*
X020180Y002292D01*
X020067Y002292D01*
X020010Y002235D01*
X020379Y002292D02*
X020379Y002008D01*
X020435Y001952D01*
X020549Y001952D01*
X020606Y002008D01*
X020606Y002292D01*
X020747Y002235D02*
X020747Y002008D01*
X020804Y001952D01*
X020917Y001952D01*
X020974Y002008D01*
X021115Y002122D02*
X021342Y002122D01*
X021285Y001952D02*
X021285Y002292D01*
X021115Y002122D01*
X020974Y002235D02*
X020917Y002292D01*
X020804Y002292D01*
X020747Y002235D01*
X021852Y002292D02*
X021852Y001952D01*
X021852Y002065D02*
X022022Y002065D01*
X022079Y002122D01*
X022079Y002235D01*
X022022Y002292D01*
X021852Y002292D01*
X022220Y002179D02*
X022220Y001952D01*
X022220Y002065D02*
X022334Y002179D01*
X022390Y002179D01*
X022527Y002122D02*
X022527Y002008D01*
X022584Y001952D01*
X022697Y001952D01*
X022754Y002008D01*
X022754Y002122D01*
X022697Y002179D01*
X022584Y002179D01*
X022527Y002122D01*
X022895Y002179D02*
X023009Y002179D01*
X022952Y002235D02*
X022952Y002008D01*
X023009Y001952D01*
X023141Y002008D02*
X023198Y001952D01*
X023311Y001952D01*
X023368Y002008D01*
X023368Y002122D01*
X023311Y002179D01*
X023198Y002179D01*
X023141Y002122D01*
X023141Y002008D01*
X023509Y002122D02*
X023736Y002122D01*
X023878Y002235D02*
X023878Y002008D01*
X023934Y001952D01*
X024048Y001952D01*
X024105Y002008D01*
X024105Y002235D02*
X024048Y002292D01*
X023934Y002292D01*
X023878Y002235D01*
X022386Y001334D02*
X022329Y001391D01*
X022216Y001391D01*
X022159Y001334D01*
X022159Y001221D01*
X022216Y001164D01*
X022329Y001164D01*
X022386Y001221D01*
X022386Y001334D01*
X022022Y001391D02*
X021965Y001391D01*
X021852Y001278D01*
X021852Y001391D02*
X021852Y001164D01*
X021710Y001278D02*
X021484Y001278D01*
X021484Y001334D02*
X021540Y001391D01*
X021654Y001391D01*
X021710Y001334D01*
X021710Y001278D01*
X021654Y001164D02*
X021540Y001164D01*
X021484Y001221D01*
X021484Y001334D01*
X021342Y001334D02*
X021115Y001334D01*
X021115Y001391D02*
X021115Y001164D01*
X021342Y001164D02*
X021342Y001391D01*
X021229Y001505D01*
X021115Y001391D01*
X020606Y001391D02*
X020435Y001391D01*
X020379Y001334D01*
X020435Y001278D01*
X020549Y001278D01*
X020606Y001221D01*
X020549Y001164D01*
X020379Y001164D01*
X020237Y001164D02*
X020237Y001391D01*
X020010Y001391D02*
X020010Y001221D01*
X020067Y001164D01*
X020237Y001164D01*
X019869Y001221D02*
X019812Y001164D01*
X019642Y001164D01*
X019699Y001278D02*
X019642Y001334D01*
X019699Y001391D01*
X019869Y001391D01*
X019812Y001278D02*
X019699Y001278D01*
X019812Y001278D02*
X019869Y001221D01*
X019501Y001278D02*
X019330Y001278D01*
X019274Y001221D01*
X019330Y001164D01*
X019501Y001164D01*
X019501Y001334D01*
X019444Y001391D01*
X019330Y001391D01*
X019132Y001391D02*
X018962Y001391D01*
X018905Y001334D01*
X018905Y001221D01*
X018962Y001164D01*
X019132Y001164D01*
X019132Y001108D02*
X019132Y001391D01*
X018764Y001334D02*
X018764Y001278D01*
X018537Y001278D01*
X018537Y001334D02*
X018594Y001391D01*
X018707Y001391D01*
X018764Y001334D01*
X018707Y001164D02*
X018594Y001164D01*
X018537Y001221D01*
X018537Y001334D01*
X018396Y001334D02*
X018396Y001448D01*
X018339Y001505D01*
X018169Y001505D01*
X018169Y001164D01*
X018169Y001278D02*
X018339Y001278D01*
X018396Y001334D01*
X019019Y001051D02*
X019076Y001051D01*
X019132Y001108D01*
X019274Y001952D02*
X019274Y002179D01*
X019274Y002122D02*
X019501Y002122D01*
M02*
