%
M48
M72
T01C0.0197
T02C0.0240
T03C0.0354
T04C0.0400
T05C0.0433
%
T01
X12647Y6000
X14320Y5213
X15962Y5410
X18844Y5402
X20698Y6056
X19883Y7752
X20859Y8300
X20336Y9178
X22005Y9461
X21989Y10272
X20714Y10780
X19513Y12748
X18926Y12748
X16887Y12973
X16887Y13760
X18926Y14914
X20509Y14158
X21682Y13733
X21682Y13142
X17351Y8615
X13903Y10835
X12351Y10764
X11647Y11130
X12525Y12410
X12072Y12815
X14737Y12831
X14072Y14658
X12036Y16095
X8639Y10272
X10450Y9689
X10462Y9178
X10454Y8430
X12316Y9733
T02
X12237Y8850
T03
X6916Y6591
X6916Y11197
T04
X23454Y10902
X23454Y9902
X23454Y8902
X23454Y7902
T05
X6916Y7989
X6916Y9800
M30
